_Griffith_Gothic-Condensed_Light_WebTT.ufo
<glyph name="percent" format="1">
  <advance width="1232.896"/>
  <unicode hex="0025"/>
  <outline>
    <contour>
      <point x="317" y="1489" type="qcurve" smooth="yes"/>
      <point x="428.940298507" y="1489.0"/>
      <point x="582.0" y="1296.14925373"/>
      <point x="582" y="1126" type="qcurve" smooth="yes"/>
      <point x="582.0" y="958.089552239"/>
      <point x="426.940298507" y="764.0"/>
      <point x="315" y="764" type="qcurve" smooth="yes"/>
      <point x="203.805970149" y="764.0"/>
      <point x="53.0" y="958.089552239"/>
      <point x="53" y="1126" type="qcurve" smooth="yes"/>
      <point x="53.0" y="1294.65671642"/>
      <point x="205.805970149" y="1489.0"/>
    </contour>
    <contour>
      <point x="315" y="854" type="qcurve" smooth="yes"/>
      <point x="393.358208955" y="854.0"/>
      <point x="475.0" y="1003.85074627"/>
      <point x="475" y="1124" type="qcurve" smooth="yes"/>
      <point x="475.0" y="1246.3880597"/>
      <point x="394.850746269" y="1399.0"/>
      <point x="315" y="1399" type="qcurve" smooth="yes"/>
      <point x="238.880597015" y="1399.0"/>
      <point x="160.0" y="1248.89552239"/>
      <point x="160" y="1128" type="qcurve" smooth="yes"/>
      <point x="160.0" y="1007.85074627"/>
      <point x="237.388059701" y="854.0"/>
    </contour>
    <contour>
      <point x="918" y="711" type="qcurve" smooth="yes"/>
      <point x="1029.19402985" y="711.0"/>
      <point x="1180.0" y="517.402985075"/>
      <point x="1180" y="348" type="qcurve" smooth="yes"/>
      <point x="1180.0" y="180.089552239"/>
      <point x="1024.94029851" y="-14.0"/>
      <point x="913" y="-14" type="qcurve" smooth="yes"/>
      <point x="801.805970149" y="-14.0"/>
      <point x="651.0" y="180.089552239"/>
      <point x="651" y="348" type="qcurve" smooth="yes"/>
      <point x="651.0" y="515.910447761"/>
      <point x="806.059701493" y="711.0"/>
    </contour>
    <contour>
      <point x="915" y="76" type="qcurve" smooth="yes"/>
      <point x="991.865671642" y="76.0"/>
      <point x="1073.0" y="225.104477612"/>
      <point x="1073" y="346" type="qcurve" smooth="yes"/>
      <point x="1073.0" y="468.388059701"/>
      <point x="993.358208955" y="621.0"/>
      <point x="915" y="621" type="qcurve" smooth="yes"/>
      <point x="838.880597015" y="621.0"/>
      <point x="758.0" y="470.895522388"/>
      <point x="758" y="350" type="qcurve" smooth="yes"/>
      <point x="758.0" y="229.104477612"/>
      <point x="837.388059701" y="76.0"/>
    </contour>
    <contour>
      <point x="913" y="1475" type="line"/>
      <point x="1024" y="1475" type="line"/>
      <point x="651" y="721" type="line"/>
      <point x="319" y="0" type="line"/>
      <point x="209" y="0" type="line"/>
      <point x="582" y="756" type="line"/>
    </contour>
  </outline>
</glyph>
<glyph name="asterisk" format="1">
  <advance width="675.84"/>
  <unicode hex="002A"/>
  <outline>
    <contour>
      <point x="584" y="1339" type="line"/>
      <point x="614" y="1243" type="line"/>
      <point x="375" y="1196" type="line"/>
      <point x="549" y="1014" type="line"/>
      <point x="463" y="952" type="line"/>
      <point x="338" y="1174" type="line"/>
      <point x="213" y="952" type="line"/>
      <point x="127" y="1014" type="line"/>
      <point x="301" y="1196" type="line"/>
      <point x="61" y="1243" type="line"/>
      <point x="92" y="1339" type="line"/>
      <point x="315" y="1231" type="line"/>
      <point x="287" y="1475" type="line"/>
      <point x="389" y="1475" type="line"/>
      <point x="360" y="1231" type="line"/>
    </contour>
  </outline>
</glyph>
<glyph name="plus" format="1">
  <advance width="964.608"/>
  <unicode hex="002B"/>
  <outline>
    <contour>
      <point x="893" y="778" type="line"/>
      <point x="893" y="676" type="line"/>
      <point x="537" y="676" type="line"/>
      <point x="537" y="301" type="line"/>
      <point x="430" y="301" type="line"/>
      <point x="430" y="676" type="line"/>
      <point x="72" y="676" type="line"/>
      <point x="72" y="778" type="line"/>
      <point x="430" y="778" type="line"/>
      <point x="430" y="1153" type="line"/>
      <point x="537" y="1153" type="line"/>
      <point x="537" y="778" type="line"/>
    </contour>
  </outline>
</glyph>
<glyph name="period" format="1">
  <advance width="301.056"/>
  <unicode hex="002E"/>
  <outline>
    <contour>
      <point x="160" y="158" type="qcurve" smooth="yes"/>
      <point x="196.567164179" y="158.0"/>
      <point x="246.0" y="110.059701493"/>
      <point x="246" y="72" type="qcurve" smooth="yes"/>
      <point x="246.0" y="33.1940298507"/>
      <point x="196.567164179" y="-14.0"/>
      <point x="160" y="-14" type="qcurve" smooth="yes"/>
      <point x="121.940298507" y="-14.0"/>
      <point x="74.0" y="33.1940298507"/>
      <point x="74" y="72" type="qcurve" smooth="yes"/>
      <point x="74.0" y="110.059701493"/>
      <point x="121.940298507" y="158.0"/>
    </contour>
  </outline>
</glyph>
<glyph name="zero" format="1">
  <advance width="968.704"/>
  <unicode hex="0030"/>
  <outline>
    <contour>
      <point x="885" y="838" type="qcurve" smooth="yes"/>
      <point x="885" y="641" type="line" smooth="yes"/>
      <point x="885.0" y="332.044776119"/>
      <point x="666.582089552" y="-25.0"/>
      <point x="483" y="-25" type="qcurve" smooth="yes"/>
      <point x="298.671641791" y="-25.0"/>
      <point x="84.0" y="329.537313433"/>
      <point x="84" y="637" type="qcurve" smooth="yes"/>
      <point x="84" y="834" type="line" smooth="yes"/>
      <point x="84.0" y="1142.20895522"/>
      <point x="298.671641791" y="1499.0"/>
      <point x="483" y="1499" type="qcurve" smooth="yes"/>
      <point x="666.582089552" y="1499.0"/>
      <point x="885.0" y="1143.2238806"/>
    </contour>
    <contour>
      <point x="483" y="76" type="qcurve" smooth="yes"/>
      <point x="619.567164179" y="76.0"/>
      <point x="758.0" y="394.164179104"/>
      <point x="758" y="627" type="qcurve" smooth="yes"/>
      <point x="758" y="844" type="line" smooth="yes"/>
      <point x="758.0" y="1074.59701493"/>
      <point x="619.567164179" y="1401.0"/>
      <point x="483" y="1401" type="qcurve" smooth="yes"/>
      <point x="348.671641791" y="1401.0"/>
      <point x="211.0" y="1078.59701493"/>
      <point x="211" y="848" type="qcurve" smooth="yes"/>
      <point x="211" y="631" type="line" smooth="yes"/>
      <point x="211.0" y="398.164179104"/>
      <point x="348.671641791" y="76.0"/>
    </contour>
  </outline>
</glyph>
<glyph name="one" format="1">
  <advance width="708.608"/>
  <unicode hex="0031"/>
  <outline>
    <contour>
      <point x="672" y="90" type="line"/>
      <point x="672" y="0" type="line"/>
      <point x="82" y="0" type="line"/>
      <point x="82" y="90" type="line"/>
      <point x="319" y="90" type="line"/>
      <point x="319" y="1384" type="line"/>
      <point x="63" y="1384" type="line"/>
      <point x="63" y="1475" type="line"/>
      <point x="442" y="1475" type="line"/>
      <point x="442" y="90" type="line"/>
    </contour>
  </outline>
</glyph>
<glyph name="five" format="1">
  <advance width="874.496"/>
  <unicode hex="0035"/>
  <outline>
    <contour>
      <point x="803" y="508" type="qcurve" smooth="yes"/>
      <point x="803" y="498" type="line" smooth="yes"/>
      <point x="803.0" y="238.298507463"/>
      <point x="545.865671642" y="-20.0"/>
      <point x="369" y="-20" type="qcurve" smooth="yes"/>
      <point x="274.223880597" y="-20.0"/>
      <point x="134.880597015" y="16.4626865672"/>
      <point x="61" y="59" type="qcurve"/>
      <point x="109" y="158" type="line"/>
      <point x="177.656716418" y="113.223880597"/>
      <point x="291.119402985" y="82.0"/>
      <point x="365" y="82" type="qcurve" smooth="yes"/>
      <point x="509.776119403" y="82.0"/>
      <point x="676.0" y="305.940298507"/>
      <point x="676" y="494" type="qcurve" smooth="yes"/>
      <point x="676" y="500" type="line" smooth="yes"/>
      <point x="676.0" y="663.432835821"/>
      <point x="566.701492537" y="838.0"/>
      <point x="457" y="838" type="qcurve" smooth="yes"/>
      <point x="388.343283582" y="838.0"/>
      <point x="288.537313433" y="767.985074627"/>
      <point x="246" y="715" type="qcurve"/>
      <point x="119" y="715" type="line"/>
      <point x="180" y="1475" type="line"/>
      <point x="741" y="1475" type="line"/>
      <point x="741" y="1370" type="line"/>
      <point x="272" y="1370" type="line"/>
      <point x="225" y="801" type="line"/>
      <point x="238" y="801" type="line"/>
      <point x="283.52238806" y="860.701492537"/>
      <point x="401.925373134" y="934.0"/>
      <point x="487" y="934" type="qcurve" smooth="yes"/>
      <point x="629.537313433" y="934.0"/>
      <point x="803.0" y="722.179104478"/>
    </contour>
  </outline>
</glyph>
<glyph name="seven" format="1">
  <advance width="804.864"/>
  <unicode hex="0037"/>
  <outline>
    <contour>
      <point x="776" y="1475" type="line"/>
      <point x="776" y="1397" type="line"/>
      <point x="608.089552239" y="1120.13432836"/>
      <point x="343.0" y="347.014925373"/>
      <point x="293" y="0" type="qcurve"/>
      <point x="168" y="0" type="line"/>
      <point x="212.029850746" y="302.985074627"/>
      <point x="477.597014925" y="1088.65671642"/>
      <point x="647" y="1370" type="qcurve"/>
      <point x="33" y="1370" type="line"/>
      <point x="33" y="1475" type="line"/>
    </contour>
  </outline>
</glyph>
<glyph name="eight" format="1">
  <advance width="944.128"/>
  <unicode hex="0038"/>
  <outline>
    <contour>
      <point x="633" y="782" type="line"/>
      <point x="727.776119403" y="748.417910448"/>
      <point x="868.0" y="550.462686567"/>
      <point x="868" y="393" type="qcurve" smooth="yes"/>
      <point x="868.0" y="191.507462687"/>
      <point x="626.970149254" y="-25.0"/>
      <point x="471" y="-25" type="qcurve" smooth="yes"/>
      <point x="315.029850746" y="-25.0"/>
      <point x="76.0" y="187.507462687"/>
      <point x="76" y="389" type="qcurve" smooth="yes"/>
      <point x="76.0" y="546.462686567"/>
      <point x="214.223880597" y="748.417910448"/>
      <point x="309" y="782" type="qcurve"/>
      <point x="309" y="795" type="line"/>
      <point x="228.402985075" y="830.074626866"/>
      <point x="106.0" y="999.641791045"/>
      <point x="106" y="1128" type="qcurve" smooth="yes"/>
      <point x="106.0" y="1295.1641791"/>
      <point x="318.014925373" y="1499.0"/>
      <point x="471" y="1499" type="qcurve" smooth="yes"/>
      <point x="623.985074627" y="1499.0"/>
      <point x="836.0" y="1299.41791045"/>
      <point x="836" y="1133" type="qcurve" smooth="yes"/>
      <point x="836.0" y="1006.13432836"/>
      <point x="713.597014925" y="831.567164179"/>
      <point x="633" y="795" type="qcurve"/>
    </contour>
    <contour>
      <point x="471" y="70" type="qcurve" smooth="yes"/>
      <point x="588.910447761" y="70.0"/>
      <point x="743.0" y="241.029850746"/>
      <point x="743" y="397" type="qcurve" smooth="yes"/>
      <point x="743.0" y="557.447761194"/>
      <point x="585.925373134" y="745.0"/>
      <point x="471" y="745" type="qcurve" smooth="yes"/>
      <point x="356.074626866" y="745.0"/>
      <point x="201.0" y="561.447761194"/>
      <point x="201" y="401" type="qcurve" smooth="yes"/>
      <point x="201.0" y="245.776119403"/>
      <point x="353.089552239" y="70.0"/>
    </contour>
    <contour>
      <point x="471" y="825" type="qcurve" smooth="yes"/>
      <point x="573.23880597" y="825.0"/>
      <point x="713.0" y="980.179104478"/>
      <point x="713" y="1116" type="qcurve" smooth="yes"/>
      <point x="713.0" y="1245.85074627"/>
      <point x="584.432835821" y="1405.0"/>
      <point x="471" y="1405" type="qcurve" smooth="yes"/>
      <point x="357.567164179" y="1405.0"/>
      <point x="229.0" y="1246.86567164"/>
      <point x="229" y="1120" type="qcurve" smooth="yes"/>
      <point x="229.0" y="985.671641791"/>
      <point x="367.268656716" y="825.0"/>
    </contour>
  </outline>
</glyph>
<glyph name="equal" format="1">
  <advance width="962.56"/>
  <unicode hex="003D"/>
  <outline>
    <contour>
      <point x="870" y="584" type="line"/>
      <point x="870" y="481" type="line"/>
      <point x="94" y="481" type="line"/>
      <point x="94" y="584" type="line"/>
    </contour>
    <contour>
      <point x="870" y="983" type="line"/>
      <point x="870" y="879" type="line"/>
      <point x="94" y="879" type="line"/>
      <point x="94" y="983" type="line"/>
    </contour>
  </outline>
</glyph>
<glyph name="greater" format="1">
  <advance width="964.608"/>
  <unicode hex="003E"/>
  <outline>
    <contour>
      <point x="889" y="780" type="line"/>
      <point x="889" y="676" type="line"/>
      <point x="88" y="299" type="line"/>
      <point x="88" y="414" type="line"/>
      <point x="778" y="729" type="line"/>
      <point x="88" y="1042" type="line"/>
      <point x="88" y="1157" type="line"/>
    </contour>
  </outline>
</glyph>
<glyph name="question" format="1">
  <advance width="727.04"/>
  <unicode hex="003F"/>
  <outline>
    <contour>
      <point x="365" y="1499" type="qcurve" smooth="yes"/>
      <point x="499.328358209" y="1499.0"/>
      <point x="655.0" y="1313.50746269"/>
      <point x="655" y="1165" type="qcurve" smooth="yes"/>
      <point x="655.0" y="1038.13432836"/>
      <point x="574.313432836" y="880.955223881"/>
      <point x="487" y="772" type="qcurve" smooth="yes"/>
      <point x="419.835820896" y="687.671641791"/>
      <point x="372.492537313" y="538.970149254"/>
      <point x="371" y="383" type="qcurve"/>
      <point x="299" y="383" type="line"/>
      <point x="291.537313433" y="569.567164179"/>
      <point x="335.164179104" y="752.268656716"/>
      <point x="418" y="856" type="qcurve" smooth="yes"/>
      <point x="480.686567164" y="934.358208955"/>
      <point x="535.0" y="1072.67164179"/>
      <point x="535" y="1157" type="qcurve" smooth="yes"/>
      <point x="535.0" y="1262.2238806"/>
      <point x="438.835820896" y="1395.0"/>
      <point x="356" y="1395" type="qcurve" smooth="yes"/>
      <point x="275.402985075" y="1395.0"/>
      <point x="172.582089552" y="1276.40298507"/>
      <point x="139" y="1157" type="qcurve"/>
      <point x="39" y="1194" type="line"/>
      <point x="72.5820895522" y="1339.52238806"/>
      <point x="232.910447761" y="1499.0"/>
    </contour>
    <contour>
      <point x="336" y="158" type="qcurve" smooth="yes"/>
      <point x="374.059701493" y="158.0"/>
      <point x="422.0" y="110.059701493"/>
      <point x="422" y="72" type="qcurve" smooth="yes"/>
      <point x="422.0" y="33.1940298507"/>
      <point x="374.059701493" y="-14.0"/>
      <point x="336" y="-14" type="qcurve" smooth="yes"/>
      <point x="297.940298507" y="-14.0"/>
      <point x="250.0" y="33.1940298507"/>
      <point x="250" y="72" type="qcurve" smooth="yes"/>
      <point x="250.0" y="110.059701493"/>
      <point x="297.940298507" y="158.0"/>
    </contour>
  </outline>
</glyph>
<glyph name="B" format="1">
  <advance width="978.944"/>
  <unicode hex="0042"/>
  <outline>
    <contour>
      <point x="627" y="793" type="line"/>
      <point x="752.373134328" y="762.402985075"/>
      <point x="909.0" y="580.895522388"/>
      <point x="909" y="410" type="qcurve" smooth="yes"/>
      <point x="909.0" y="210.746268657"/>
      <point x="670.044776119" y="0.0"/>
      <point x="479" y="0" type="qcurve" smooth="yes"/>
      <point x="133" y="0" type="line"/>
      <point x="133" y="1475" type="line"/>
      <point x="485" y="1475" type="line" smooth="yes"/>
      <point x="656.641791045" y="1475.0"/>
      <point x="858.0" y="1284.95522388"/>
      <point x="858" y="1126" type="qcurve" smooth="yes"/>
      <point x="858.0" y="987.194029851"/>
      <point x="721.776119403" y="833.089552239"/>
      <point x="627" y="801" type="qcurve"/>
    </contour>
    <contour>
      <point x="473" y="94" type="line" smooth="yes"/>
      <point x="614.044776119" y="94.0"/>
      <point x="782.0" y="250.537313433"/>
      <point x="782" y="408" type="qcurve" smooth="yes"/>
      <point x="782.0" y="566.955223881"/>
      <point x="633.925373134" y="743.0"/>
      <point x="469" y="743" type="qcurve" smooth="yes"/>
      <point x="260" y="743" type="line"/>
      <point x="260" y="94" type="line"/>
    </contour>
    <contour>
      <point x="465" y="838" type="line" smooth="yes"/>
      <point x="585.895522388" y="838.0"/>
      <point x="735.0" y="976.208955224"/>
      <point x="735" y="1118" type="qcurve" smooth="yes"/>
      <point x="735.0" y="1246.35820896"/>
      <point x="593.895522388" y="1380.0"/>
      <point x="473" y="1380" type="qcurve" smooth="yes"/>
      <point x="260" y="1380" type="line"/>
      <point x="260" y="838" type="line"/>
    </contour>
  </outline>
</glyph>
<glyph name="F" format="1">
  <advance width="813.056"/>
  <unicode hex="0046"/>
  <outline>
    <contour>
      <point x="784" y="1475" type="line"/>
      <point x="784" y="1372" type="line"/>
      <point x="262" y="1372" type="line"/>
      <point x="262" y="788" type="line"/>
      <point x="682" y="788" type="line"/>
      <point x="682" y="688" type="line"/>
      <point x="262" y="688" type="line"/>
      <point x="262" y="0" type="line"/>
      <point x="133" y="0" type="line"/>
      <point x="133" y="1475" type="line"/>
    </contour>
  </outline>
</glyph>
<glyph name="H" format="1">
  <advance width="1007.616"/>
  <unicode hex="0048"/>
  <outline>
    <contour>
      <point x="877" y="1475" type="line"/>
      <point x="877" y="0" type="line"/>
      <point x="745" y="0" type="line"/>
      <point x="745" y="719" type="line"/>
      <point x="262" y="719" type="line"/>
      <point x="262" y="0" type="line"/>
      <point x="133" y="0" type="line"/>
      <point x="133" y="1475" type="line"/>
      <point x="262" y="1475" type="line"/>
      <point x="262" y="823" type="line"/>
      <point x="745" y="823" type="line"/>
      <point x="745" y="1475" type="line"/>
    </contour>
  </outline>
</glyph>
<glyph name="L" format="1">
  <advance width="798.72"/>
  <unicode hex="004C"/>
  <outline>
    <contour>
      <point x="782" y="104" type="line"/>
      <point x="782" y="0" type="line"/>
      <point x="133" y="0" type="line"/>
      <point x="133" y="1475" type="line"/>
      <point x="262" y="1475" type="line"/>
      <point x="262" y="104" type="line"/>
    </contour>
  </outline>
</glyph>
<glyph name="P" format="1">
  <advance width="913.408"/>
  <unicode hex="0050"/>
  <outline>
    <contour>
      <point x="418" y="1475" type="line" smooth="yes"/>
      <point x="622.47761194" y="1475.0"/>
      <point x="854.0" y="1257.98507463"/>
      <point x="854" y="1055" type="qcurve" smooth="yes"/>
      <point x="854.0" y="848.28358209"/>
      <point x="622.447761194" y="625.0"/>
      <point x="412" y="625" type="qcurve" smooth="yes"/>
      <point x="262" y="625" type="line"/>
      <point x="262" y="0" type="line"/>
      <point x="133" y="0" type="line"/>
      <point x="133" y="1475" type="line"/>
    </contour>
    <contour>
      <point x="432" y="723" type="line" smooth="yes"/>
      <point x="577.52238806" y="723.0"/>
      <point x="729.0" y="888.552238806"/>
      <point x="729" y="1049" type="qcurve" smooth="yes"/>
      <point x="729.0" y="1206.46268657"/>
      <point x="576.0" y="1376.0"/>
      <point x="426" y="1376" type="qcurve" smooth="yes"/>
      <point x="260" y="1376" type="line"/>
      <point x="260" y="723" type="line"/>
    </contour>
  </outline>
</glyph>
<glyph name="U" format="1">
  <advance width="1005.568"/>
  <unicode hex="0055"/>
  <outline>
    <contour>
      <point x="879" y="1475" type="line"/>
      <point x="879" y="451" type="line" smooth="yes"/>
      <point x="879.0" y="200.253731343"/>
      <point x="667.432835821" y="-25.0"/>
      <point x="504" y="-25" type="qcurve" smooth="yes"/>
      <point x="339.074626866" y="-25.0"/>
      <point x="125.0" y="200.76119403"/>
      <point x="125" y="453" type="qcurve" smooth="yes"/>
      <point x="125" y="1475" type="line"/>
      <point x="254" y="1475" type="line"/>
      <point x="254" y="442" type="line" smooth="yes"/>
      <point x="254.0" y="252.447761194"/>
      <point x="396.059701493" y="76.0"/>
      <point x="508" y="76" type="qcurve" smooth="yes"/>
      <point x="619.194029851" y="76.0"/>
      <point x="758.0" y="247.940298507"/>
      <point x="758" y="436" type="qcurve" smooth="yes"/>
      <point x="758" y="1475" type="line"/>
    </contour>
  </outline>
</glyph>
<glyph name="V" format="1">
  <advance width="972.8"/>
  <unicode hex="0056"/>
  <outline>
    <contour>
      <point x="819" y="1475" type="line"/>
      <point x="946" y="1475" type="line"/>
      <point x="571" y="-14" type="line"/>
      <point x="414" y="-14" type="line"/>
      <point x="43" y="1475" type="line"/>
      <point x="176" y="1475" type="line"/>
      <point x="492" y="143" type="line"/>
      <point x="502" y="143" type="line"/>
    </contour>
  </outline>
</glyph>
<glyph name="X" format="1">
  <advance width="1009.664"/>
  <unicode hex="0058"/>
  <outline>
    <contour>
      <point x="580" y="762" type="line"/>
      <point x="963" y="0" type="line"/>
      <point x="819" y="0" type="line"/>
      <point x="502" y="655" type="line"/>
      <point x="176" y="0" type="line"/>
      <point x="47" y="0" type="line"/>
      <point x="430" y="758" type="line"/>
      <point x="72" y="1475" type="line"/>
      <point x="215" y="1475" type="line"/>
      <point x="510" y="866" type="line"/>
      <point x="809" y="1475" type="line"/>
      <point x="938" y="1475" type="line"/>
    </contour>
  </outline>
</glyph>
<glyph name="Y" format="1">
  <advance width="993.28"/>
  <unicode hex="0059"/>
  <outline>
    <contour>
      <point x="838" y="1475" type="line"/>
      <point x="967" y="1475" type="line"/>
      <point x="561" y="571" type="line"/>
      <point x="561" y="0" type="line"/>
      <point x="432" y="0" type="line"/>
      <point x="432" y="569" type="line"/>
      <point x="27" y="1475" type="line"/>
      <point x="166" y="1475" type="line"/>
      <point x="504" y="690" type="line"/>
    </contour>
  </outline>
</glyph>
<glyph name="Z" format="1">
  <advance width="878.592"/>
  <unicode hex="005A"/>
  <outline>
    <contour>
      <point x="823" y="102" type="line"/>
      <point x="823" y="0" type="line"/>
      <point x="55" y="0" type="line"/>
      <point x="55" y="88" type="line"/>
      <point x="682" y="1372" type="line"/>
      <point x="86" y="1372" type="line"/>
      <point x="86" y="1475" type="line"/>
      <point x="823" y="1475" type="line"/>
      <point x="823" y="1386" type="line"/>
      <point x="199" y="102" type="line"/>
    </contour>
  </outline>
</glyph>
<glyph name="bracketleft" format="1">
  <advance width="559.104"/>
  <unicode hex="005B"/>
  <outline>
    <contour>
      <point x="520" y="-90" type="line"/>
      <point x="520" y="-164" type="line"/>
      <point x="129" y="-180" type="line"/>
      <point x="129" y="1491" type="line"/>
      <point x="520" y="1475" type="line"/>
      <point x="520" y="1401" type="line"/>
      <point x="240" y="1415" type="line"/>
      <point x="240" y="-104" type="line"/>
    </contour>
  </outline>
</glyph>
<glyph name="bracketright" format="1">
  <advance width="559.104"/>
  <unicode hex="005D"/>
  <outline>
    <contour>
      <point x="430" y="1491" type="line"/>
      <point x="430" y="-180" type="line"/>
      <point x="41" y="-164" type="line"/>
      <point x="41" y="-90" type="line"/>
      <point x="319" y="-104" type="line"/>
      <point x="319" y="1415" type="line"/>
      <point x="41" y="1401" type="line"/>
      <point x="41" y="1475" type="line"/>
    </contour>
  </outline>
</glyph>
<glyph name="b" format="1">
  <advance width="831.488"/>
  <unicode hex="0062"/>
  <outline>
    <contour>
      <point x="768" y="559" type="qcurve" smooth="yes"/>
      <point x="768" y="502" type="line" smooth="yes"/>
      <point x="768.0" y="251.253731343"/>
      <point x="601.701492537" y="-20.0"/>
      <point x="492" y="-20" type="qcurve" smooth="yes"/>
      <point x="413.641791045" y="-20.0"/>
      <point x="290.537313433" y="104.925373134"/>
      <point x="248" y="190" type="qcurve"/>
      <point x="238" y="190" type="line"/>
      <point x="238" y="-18" type="line"/>
      <point x="117" y="25" type="line"/>
      <point x="117" y="1516" type="line"/>
      <point x="238" y="1559" type="line"/>
      <point x="238" y="858" type="line"/>
      <point x="248" y="858" type="line"/>
      <point x="293.52238806" y="949.791044776"/>
      <point x="413.671641791" y="1077.0"/>
      <point x="498" y="1077" type="qcurve" smooth="yes"/>
      <point x="609.194029851" y="1077.0"/>
      <point x="768.0" y="812.731343284"/>
    </contour>
    <contour>
      <point x="461" y="76" type="qcurve" smooth="yes"/>
      <point x="541.597014925" y="76.0"/>
      <point x="649.0" y="303.373134328"/>
      <point x="649" y="528" type="qcurve" smooth="yes"/>
      <point x="649.0" y="763.820895522"/>
      <point x="537.089552239" y="983.0"/>
      <point x="455" y="983" type="qcurve" smooth="yes"/>
      <point x="364.701492537" y="983.0"/>
      <point x="227.0" y="711.582089552"/>
      <point x="227" y="528" type="qcurve" smooth="yes"/>
      <point x="227.0" y="346.656716418"/>
      <point x="364.731343284" y="76.0"/>
    </contour>
  </outline>
</glyph>
<glyph name="j" format="1">
  <advance width="366.592"/>
  <unicode hex="006A"/>
  <outline>
    <contour>
      <point x="244" y="1059" type="line"/>
      <point x="244" y="-162" type="line" smooth="yes"/>
      <point x="244.0" y="-281.402985075"/>
      <point x="140.28358209" y="-389.0"/>
      <point x="47" y="-389" type="qcurve" smooth="yes"/>
      <point x="11.9253731343" y="-389.0"/>
      <point x="-34.6119402985" y="-381.955223881"/>
      <point x="-57" y="-373" type="qcurve"/>
      <point x="-57" y="-285" type="line"/>
      <point x="-40.5820895522" y="-293.955223881"/>
      <point x="1.89552238806" y="-303.0"/>
      <point x="31" y="-303" type="qcurve" smooth="yes"/>
      <point x="70.552238806" y="-303.0"/>
      <point x="123.0" y="-241.164179104"/>
      <point x="123" y="-174" type="qcurve" smooth="yes"/>
      <point x="123" y="1059" type="line"/>
    </contour>
    <contour>
      <point x="252" y="1475" type="line"/>
      <point x="252" y="1317" type="line"/>
      <point x="115" y="1317" type="line"/>
      <point x="115" y="1475" type="line"/>
    </contour>
  </outline>
</glyph>
<glyph name="q" format="1">
  <advance width="831.488"/>
  <unicode hex="0071"/>
  <outline>
    <contour>
      <point x="721" y="1034" type="line"/>
      <point x="721" y="-385" type="line"/>
      <point x="600" y="-385" type="line"/>
      <point x="600" y="201" type="line"/>
      <point x="592" y="201" type="line"/>
      <point x="545.731343284" y="109.208955224"/>
      <point x="426.328358209" y="-20.0"/>
      <point x="342" y="-20" type="qcurve" smooth="yes"/>
      <point x="228.567164179" y="-20.0"/>
      <point x="70.0" y="246.268656716"/>
      <point x="70" y="500" type="qcurve" smooth="yes"/>
      <point x="70" y="557" type="line" smooth="yes"/>
      <point x="70.0" y="807.746268657"/>
      <point x="238.298507463" y="1077.0"/>
      <point x="348" y="1077" type="qcurve" smooth="yes"/>
      <point x="426.358208955" y="1077.0"/>
      <point x="547.223880597" y="953.313432836"/>
      <point x="592" y="866" type="qcurve"/>
      <point x="600" y="866" type="line"/>
      <point x="600" y="1077" type="line"/>
    </contour>
    <contour>
      <point x="385" y="76" type="qcurve" smooth="yes"/>
      <point x="475.298507463" y="76.0"/>
      <point x="610.0" y="345.164179104"/>
      <point x="610" y="528" type="qcurve" smooth="yes"/>
      <point x="610.0" y="711.582089552"/>
      <point x="475.268656716" y="983.0"/>
      <point x="379" y="983" type="qcurve" smooth="yes"/>
      <point x="297.656716418" y="983.0"/>
      <point x="188.0" y="754.626865672"/>
      <point x="188" y="530" type="qcurve" smooth="yes"/>
      <point x="188.0" y="294.925373134"/>
      <point x="302.164179104" y="76.0"/>
    </contour>
  </outline>
</glyph>
<glyph name="r" format="1">
  <advance width="595.968"/>
  <unicode hex="0072"/>
  <outline>
    <contour>
      <point x="575" y="1077" type="qcurve"/>
      <point x="575" y="938" type="line"/>
      <point x="468.28358209" y="910.388059701"/>
      <point x="296.671641791" y="720.865671642"/>
      <point x="231" y="594" type="qcurve"/>
      <point x="231" y="0" type="line"/>
      <point x="111" y="0" type="line"/>
      <point x="111" y="1034" type="line"/>
      <point x="231" y="1077" type="line"/>
      <point x="231" y="705" type="line"/>
      <point x="242" y="705" type="line"/>
      <point x="322.597014925" y="865.447761194"/>
      <point x="485.447761194" y="1057.59701493"/>
    </contour>
  </outline>
</glyph>
<glyph name="s" format="1">
  <advance width="661.504"/>
  <unicode hex="0073"/>
  <outline>
    <contour>
      <point x="358" y="602" type="qcurve" smooth="yes"/>
      <point x="487.850746269" y="533.343283582"/>
      <point x="602.0" y="382.417910448"/>
      <point x="602" y="266" type="qcurve" smooth="yes"/>
      <point x="602.0" y="131.671641791"/>
      <point x="441.701492537" y="-16.0"/>
      <point x="332" y="-16" type="qcurve" smooth="yes"/>
      <point x="234.23880597" y="-16.0"/>
      <point x="93.7462686567" y="78.6268656716"/>
      <point x="43" y="154" type="qcurve"/>
      <point x="117" y="223" type="line"/>
      <point x="164.014925373" y="151.358208955"/>
      <point x="271.820895522" y="72.0"/>
      <point x="336" y="72" type="qcurve" smooth="yes"/>
      <point x="407.641791045" y="72.0"/>
      <point x="498.0" y="173.641791045"/>
      <point x="498" y="252" type="qcurve" smooth="yes"/>
      <point x="498.0" y="334.089552239"/>
      <point x="421.447761194" y="436.298507463"/>
      <point x="311" y="496" type="qcurve" smooth="yes"/>
      <point x="190.850746269" y="560.179104478"/>
      <point x="72.0" y="702.791044776"/>
      <point x="72" y="811" type="qcurve" smooth="yes"/>
      <point x="72.0" y="928.910447761"/>
      <point x="219.552238806" y="1075.0"/>
      <point x="330" y="1075" type="qcurve" smooth="yes"/>
      <point x="410.597014925" y="1075.0"/>
      <point x="534.746268657" y="999.671641791"/>
      <point x="584" y="934" type="qcurve"/>
      <point x="512" y="862" type="line"/>
      <point x="467.970149254" y="924.686567164"/>
      <point x="379.492537313" y="987.0"/>
      <point x="328" y="987" type="qcurve" smooth="yes"/>
      <point x="257.104477612" y="987.0"/>
      <point x="180.0" y="891.656716418"/>
      <point x="180" y="823" type="qcurve" smooth="yes"/>
      <point x="180.0" y="749.865671642"/>
      <point x="263.223880597" y="652.746268657"/>
    </contour>
  </outline>
</glyph>
<glyph name="t" format="1">
  <advance width="567.296"/>
  <unicode hex="0074"/>
  <outline>
    <contour>
      <point x="535" y="143" type="qcurve"/>
      <point x="535" y="49" type="line"/>
      <point x="485.746268657" y="16.9104477612"/>
      <point x="399.76119403" y="-14.0"/>
      <point x="352" y="-14" type="qcurve" smooth="yes"/>
      <point x="274.388059701" y="-14.0"/>
      <point x="176.0" y="76.2686567164"/>
      <point x="176" y="180" type="qcurve" smooth="yes"/>
      <point x="176" y="961" type="line"/>
      <point x="27" y="961" type="line"/>
      <point x="27" y="1049" type="line"/>
      <point x="176" y="1049" type="line"/>
      <point x="176" y="1407" type="line"/>
      <point x="295" y="1497" type="line"/>
      <point x="295" y="1049" type="line"/>
      <point x="498" y="1049" type="line"/>
      <point x="498" y="961" type="line"/>
      <point x="295" y="961" type="line"/>
      <point x="295" y="201" type="line" smooth="yes"/>
      <point x="295.0" y="139.805970149"/>
      <point x="346.970149254" y="84.0"/>
      <point x="391" y="84" type="qcurve" smooth="yes"/>
      <point x="423.089552239" y="84.0"/>
      <point x="490.223880597" y="110.910447761"/>
    </contour>
  </outline>
</glyph>
<glyph name="x" format="1">
  <advance width="772.096"/>
  <unicode hex="0078"/>
  <outline>
    <contour>
      <point x="449" y="543" type="line"/>
      <point x="727" y="0" type="line"/>
      <point x="594" y="0" type="line"/>
      <point x="381" y="434" type="line"/>
      <point x="162" y="0" type="line"/>
      <point x="47" y="0" type="line"/>
      <point x="324" y="535" type="line"/>
      <point x="57" y="1059" type="line"/>
      <point x="188" y="1059" type="line"/>
      <point x="391" y="643" type="line"/>
      <point x="600" y="1059" type="line"/>
      <point x="717" y="1059" type="line"/>
    </contour>
  </outline>
</glyph>
<glyph name="y" format="1">
  <advance width="745.472"/>
  <unicode hex="0079"/>
  <outline>
    <contour>
      <point x="588" y="1059" type="line"/>
      <point x="702" y="1059" type="line"/>
      <point x="397" y="-150" type="line" smooth="yes"/>
      <point x="364.910447761" y="-279.850746269"/>
      <point x="251.791044776" y="-389.0"/>
      <point x="160" y="-389" type="qcurve" smooth="yes"/>
      <point x="110.746268657" y="-389.0"/>
      <point x="51.8656716418" y="-372.179104478"/>
      <point x="25" y="-358" type="qcurve"/>
      <point x="25" y="-256" type="line"/>
      <point x="63" y="-256" type="line"/>
      <point x="77.1791044776" y="-282.119402985"/>
      <point x="118.71641791" y="-313.0"/>
      <point x="162" y="-313" type="qcurve" smooth="yes"/>
      <point x="203.044776119" y="-313.0"/>
      <point x="267.835820896" y="-247.671641791"/>
      <point x="285" y="-182" type="qcurve" smooth="yes"/>
      <point x="319" y="-51" type="line"/>
      <point x="41" y="1059" type="line"/>
      <point x="162" y="1059" type="line"/>
      <point x="375" y="115" type="line"/>
    </contour>
  </outline>
</glyph>
<glyph name="braceright" format="1">
  <advance width="620.544"/>
  <unicode hex="007D"/>
  <outline>
    <contour>
      <point x="584" y="694" type="qcurve"/>
      <point x="584" y="616" type="line"/>
      <point x="493.701492537" y="616.0"/>
      <point x="371.0" y="520.208955224"/>
      <point x="371" y="412" type="qcurve" smooth="yes"/>
      <point x="371.0" y="347.820895522"/>
      <point x="403.0" y="160.149253731"/>
      <point x="403" y="90" type="qcurve" smooth="yes"/>
      <point x="403.0" y="-36.8656716418"/>
      <point x="286.417910448" y="-164.0"/>
      <point x="170" y="-164" type="qcurve" smooth="yes"/>
      <point x="55" y="-164" type="line"/>
      <point x="55" y="-90" type="line"/>
      <point x="141" y="-90" type="line" smooth="yes"/>
      <point x="217.865671642" y="-90.0"/>
      <point x="291.0" y="-5.31343283582"/>
      <point x="291" y="82" type="qcurve" smooth="yes"/>
      <point x="291.0" y="144.686567164"/>
      <point x="260.0" y="318.880597015"/>
      <point x="260" y="395" type="qcurve" smooth="yes"/>
      <point x="260.0" y="512.910447761"/>
      <point x="367.343283582" y="617.895522388"/>
      <point x="436" y="647" type="qcurve"/>
      <point x="436" y="664" type="line"/>
      <point x="367.343283582" y="692.358208955"/>
      <point x="260.0" y="797.835820896"/>
      <point x="260" y="915" type="qcurve" smooth="yes"/>
      <point x="260.0" y="991.865671642"/>
      <point x="291.0" y="1166.31343284"/>
      <point x="291" y="1229" type="qcurve" smooth="yes"/>
      <point x="291.0" y="1316.31343284"/>
      <point x="217.865671642" y="1401.0"/>
      <point x="141" y="1401" type="qcurve" smooth="yes"/>
      <point x="55" y="1401" type="line"/>
      <point x="55" y="1475" type="line"/>
      <point x="170" y="1475" type="line" smooth="yes"/>
      <point x="286.417910448" y="1475.0"/>
      <point x="403.0" y="1347.86567164"/>
      <point x="403" y="1221" type="qcurve" smooth="yes"/>
      <point x="403.0" y="1150.10447761"/>
      <point x="371.0" y="963.179104478"/>
      <point x="371" y="899" type="qcurve" smooth="yes"/>
      <point x="371.0" y="790.791044776"/>
      <point x="493.701492537" y="694.0"/>
    </contour>
  </outline>
</glyph>
<glyph name="exclamdown" format="1">
  <advance width="409.6"/>
  <unicode hex="00A1"/>
  <outline>
    <contour>
      <point x="205" y="1489" type="qcurve" smooth="yes"/>
      <point x="243.059701493" y="1489.0"/>
      <point x="291.0" y="1441.05970149"/>
      <point x="291" y="1403" type="qcurve" smooth="yes"/>
      <point x="291.0" y="1364.94029851"/>
      <point x="243.059701493" y="1317.0"/>
      <point x="205" y="1317" type="qcurve" smooth="yes"/>
      <point x="168.432835821" y="1317.0"/>
      <point x="119.0" y="1364.94029851"/>
      <point x="119" y="1403" type="qcurve" smooth="yes"/>
      <point x="119.0" y="1441.05970149"/>
      <point x="168.432835821" y="1489.0"/>
    </contour>
    <contour>
      <point x="238" y="1092" type="line"/>
      <point x="279" y="0" type="line"/>
      <point x="133" y="0" type="line"/>
      <point x="174" y="1092" type="line"/>
    </contour>
  </outline>
</glyph>
<glyph name="cent" format="1">
  <advance width="733.184"/>
  <unicode hex="00A2"/>
  <outline>
    <contour>
      <point x="578" y="289" type="qcurve"/>
      <point x="670" y="260" type="line"/>
      <point x="640.895522388" y="136.119402985"/>
      <point x="500.432835821" y="-20.0"/>
      <point x="387" y="-20" type="qcurve" smooth="yes"/>
      <point x="354.910447761" y="-20.0"/>
      <point x="299.611940299" y="-5.94029850746"/>
      <point x="272" y="6" type="qcurve"/>
      <point x="209" y="-195" type="line"/>
      <point x="137" y="-195" type="line"/>
      <point x="215" y="45" type="line"/>
      <point x="147.835820896" y="104.701492537"/>
      <point x="70.0" y="325.47761194"/>
      <point x="70" y="471" type="qcurve" smooth="yes"/>
      <point x="70" y="600" type="line" smooth="yes"/>
      <point x="70.0" y="818.656716418"/>
      <point x="244.194029851" y="1079.0"/>
      <point x="383" y="1079" type="qcurve" smooth="yes"/>
      <point x="424.044776119" y="1079.0"/>
      <point x="496.895522388" y="1058.14925373"/>
      <point x="526" y="1038" type="qcurve"/>
      <point x="592" y="1253" type="line"/>
      <point x="664" y="1253" type="line"/>
      <point x="307" y="96" type="line"/>
      <point x="327.149253731" y="81.0746268657"/>
      <point x="369.865671642" y="68.0"/>
      <point x="393" y="68" type="qcurve" smooth="yes"/>
      <point x="458.671641791" y="68.0"/>
      <point x="553.373134328" y="185.268656716"/>
    </contour>
    <contour>
      <point x="258" y="150" type="qcurve"/>
      <point x="494" y="944" type="line"/>
      <point x="470.865671642" y="967.134328358"/>
      <point x="414.074626866" y="991.0"/>
      <point x="379" y="991" type="qcurve" smooth="yes"/>
      <point x="294.671641791" y="991.0"/>
      <point x="184.0" y="785.611940299"/>
      <point x="184" y="608" type="qcurve" smooth="yes"/>
      <point x="184" y="471" type="line" smooth="yes"/>
      <point x="184.0" y="365.776119403"/>
      <point x="224.417910448" y="204.47761194"/>
    </contour>
  </outline>
</glyph>
<glyph name="yen" format="1">
  <advance width="976.896"/>
  <unicode hex="00A5"/>
  <outline>
    <contour>
      <point x="813" y="1475" type="line"/>
      <point x="940" y="1475" type="line"/>
      <point x="637" y="776" type="line"/>
      <point x="866" y="776" type="line"/>
      <point x="866" y="696" type="line"/>
      <point x="604" y="696" type="line"/>
      <point x="551" y="571" type="line"/>
      <point x="551" y="416" type="line"/>
      <point x="866" y="416" type="line"/>
      <point x="866" y="336" type="line"/>
      <point x="551" y="336" type="line"/>
      <point x="551" y="0" type="line"/>
      <point x="428" y="0" type="line"/>
      <point x="428" y="336" type="line"/>
      <point x="113" y="336" type="line"/>
      <point x="113" y="416" type="line"/>
      <point x="428" y="416" type="line"/>
      <point x="428" y="569" type="line"/>
      <point x="371" y="696" type="line"/>
      <point x="113" y="696" type="line"/>
      <point x="113" y="776" type="line"/>
      <point x="338" y="776" type="line"/>
      <point x="37" y="1475" type="line"/>
      <point x="174" y="1475" type="line"/>
      <point x="494" y="686" type="line"/>
    </contour>
  </outline>
</glyph>
<glyph name="section" format="1">
  <advance width="921.6"/>
  <unicode hex="00A7"/>
  <outline>
    <contour>
      <point x="528" y="1028" type="qcurve" smooth="yes"/>
      <point x="696.656716418" y="962.328358209"/>
      <point x="860.0" y="812.447761194"/>
      <point x="860" y="702" type="qcurve" smooth="yes"/>
      <point x="860.0" y="598.268656716"/>
      <point x="709.880597015" y="462.492537313"/>
      <point x="586" y="461" type="qcurve"/>
      <point x="586" y="449" type="line"/>
      <point x="660.626865672" y="411.686567164"/>
      <point x="762.0" y="297.298507463"/>
      <point x="762" y="207" type="qcurve" smooth="yes"/>
      <point x="762.0" y="104.76119403"/>
      <point x="606.343283582" y="-25.0"/>
      <point x="475" y="-25" type="qcurve" smooth="yes"/>
      <point x="381.71641791" y="-25.0"/>
      <point x="232.119402985" y="25.2537313433"/>
      <point x="156" y="76" type="qcurve"/>
      <point x="205" y="162" type="line"/>
      <point x="272.164179104" y="114.23880597"/>
      <point x="404.880597015" y="68.0"/>
      <point x="481" y="68" type="qcurve" smooth="yes"/>
      <point x="562.343283582" y="68.0"/>
      <point x="653.0" y="144.313432836"/>
      <point x="653" y="207" type="qcurve" smooth="yes"/>
      <point x="653.0" y="274.164179104"/>
      <point x="551.955223881" y="383.313432836"/>
      <point x="393" y="446" type="qcurve" smooth="yes"/>
      <point x="225.089552239" y="512.417910448"/>
      <point x="61.0" y="662.298507463"/>
      <point x="61" y="772" type="qcurve" smooth="yes"/>
      <point x="61.0" y="875.731343284"/>
      <point x="213.611940299" y="1012.50746269"/>
      <point x="336" y="1014" type="qcurve"/>
      <point x="336" y="1026" type="line"/>
      <point x="261.373134328" y="1062.56716418"/>
      <point x="160.0" y="1177.70149254"/>
      <point x="160" y="1268" type="qcurve" smooth="yes"/>
      <point x="160.0" y="1370.23880597"/>
      <point x="316.149253731" y="1499.0"/>
      <point x="446" y="1499" type="qcurve" smooth="yes"/>
      <point x="540.776119403" y="1499.0"/>
      <point x="689.880597015" y="1449.0"/>
      <point x="766" y="1399" type="qcurve"/>
      <point x="717" y="1313" type="line"/>
      <point x="651.328358209" y="1360.01492537"/>
      <point x="517.373134328" y="1407.0"/>
      <point x="442" y="1407" type="qcurve" smooth="yes"/>
      <point x="359.910447761" y="1407.0"/>
      <point x="268.0" y="1330.68656716"/>
      <point x="268" y="1268" type="qcurve" smooth="yes"/>
      <point x="268.0" y="1200.8358209"/>
      <point x="369.044776119" y="1090.68656716"/>
    </contour>
    <contour>
      <point x="567" y="522" type="qcurve" smooth="yes"/>
      <point x="643.865671642" y="522.0"/>
      <point x="752.0" y="607.402985075"/>
      <point x="752" y="688" type="qcurve" smooth="yes"/>
      <point x="752.0" y="749.194029851"/>
      <point x="666.910447761" y="863.507462687"/>
      <point x="549" y="915" type="qcurve" smooth="yes"/>
      <point x="498.253731343" y="936.641791045"/>
      <point x="405.253731343" y="952.0"/>
      <point x="356" y="952" type="qcurve" smooth="yes"/>
      <point x="278.388059701" y="952.0"/>
      <point x="170.0" y="867.343283582"/>
      <point x="170" y="786" type="qcurve" smooth="yes"/>
      <point x="170.0" y="725.552238806"/>
      <point x="257.089552239" y="611.23880597"/>
      <point x="375" y="559" type="qcurve" smooth="yes"/>
      <point x="423.507462687" y="537.358208955"/>
      <point x="517.0" y="522.0"/>
    </contour>
  </outline>
</glyph>
<glyph name="ordfeminine" format="1">
  <advance width="593.92"/>
  <unicode hex="00AA"/>
  <outline>
    <contour>
      <point x="530" y="963" type="qcurve"/>
      <point x="530" y="909" type="line"/>
      <point x="472.537313433" y="907.507462687"/>
      <point x="404.701492537" y="953.47761194"/>
      <point x="395" y="999" type="qcurve"/>
      <point x="393" y="999" type="line"/>
      <point x="356.432835821" y="951.985074627"/>
      <point x="274.76119403" y="905.0"/>
      <point x="227" y="905" type="qcurve" smooth="yes"/>
      <point x="164.313432836" y="905.0"/>
      <point x="74.0" y="984.134328358"/>
      <point x="74" y="1061" type="qcurve" smooth="yes"/>
      <point x="74.0" y="1143.08955224"/>
      <point x="231.029850746" y="1251.50746269"/>
      <point x="387" y="1253" type="qcurve"/>
      <point x="387" y="1309" type="line" smooth="yes"/>
      <point x="387.0" y="1360.49253731"/>
      <point x="349.776119403" y="1411.0"/>
      <point x="305" y="1411" type="qcurve" smooth="yes"/>
      <point x="265.447761194" y="1411.0"/>
      <point x="184.28358209" y="1386.11940299"/>
      <point x="141" y="1360" type="qcurve"/>
      <point x="113" y="1421" type="line"/>
      <point x="160.014925373" y="1447.11940299"/>
      <point x="262.805970149" y="1485.0"/>
      <point x="324" y="1485" type="qcurve" smooth="yes"/>
      <point x="403.104477612" y="1485.0"/>
      <point x="477.0" y="1403.80597015"/>
      <point x="477" y="1315" type="qcurve" smooth="yes"/>
      <point x="477" y="1030" type="line" smooth="yes"/>
      <point x="477.0" y="1000.89552239"/>
      <point x="503.134328358" y="964.492537313"/>
    </contour>
    <contour>
      <point x="250" y="975" type="qcurve" smooth="yes"/>
      <point x="289.552238806" y="975.0"/>
      <point x="359.388059701" y="1017.95522388"/>
      <point x="387" y="1059" type="qcurve"/>
      <point x="387" y="1200" type="line"/>
      <point x="267.597014925" y="1200.0"/>
      <point x="164.0" y="1119.23880597"/>
      <point x="164" y="1067" type="qcurve" smooth="yes"/>
      <point x="164.0" y="1022.97014925"/>
      <point x="211.940298507" y="975.0"/>
    </contour>
    <contour>
      <point x="512" y="797" type="line"/>
      <point x="512" y="729" type="line"/>
      <point x="80" y="729" type="line"/>
      <point x="80" y="797" type="line"/>
    </contour>
  </outline>
</glyph>
<glyph name="guillemotleft" format="1">
  <advance width="733.184"/>
  <unicode hex="00AB"/>
  <outline>
    <contour>
      <point x="174" y="528" type="line"/>
      <point x="367" y="160" type="line"/>
      <point x="291" y="160" type="line"/>
      <point x="37" y="528" type="line"/>
      <point x="291" y="899" type="line"/>
      <point x="367" y="899" type="line"/>
    </contour>
    <contour>
      <point x="479" y="528" type="line"/>
      <point x="672" y="160" type="line"/>
      <point x="596" y="160" type="line"/>
      <point x="342" y="528" type="line"/>
      <point x="596" y="899" type="line"/>
      <point x="672" y="899" type="line"/>
    </contour>
  </outline>
</glyph>
<glyph name="periodcentered" format="1">
  <advance width="319.488"/>
  <unicode hex="00B7"/>
  <outline>
    <contour>
      <point x="160" y="655" type="qcurve" smooth="yes"/>
      <point x="196.567164179" y="655.0"/>
      <point x="246.0" y="607.805970149"/>
      <point x="246" y="569" type="qcurve" smooth="yes"/>
      <point x="246.0" y="530.940298507"/>
      <point x="196.567164179" y="483.0"/>
      <point x="160" y="483" type="qcurve" smooth="yes"/>
      <point x="121.940298507" y="483.0"/>
      <point x="74.0" y="530.940298507"/>
      <point x="74" y="569" type="qcurve" smooth="yes"/>
      <point x="74.0" y="607.805970149"/>
      <point x="121.940298507" y="655.0"/>
    </contour>
  </outline>
</glyph>
<glyph name="ordmasculine" format="1">
  <advance width="581.632"/>
  <unicode hex="00BA"/>
  <outline>
    <contour>
      <point x="512" y="1204" type="qcurve" smooth="yes"/>
      <point x="512" y="1188" type="line" smooth="yes"/>
      <point x="512.0" y="1061.13432836"/>
      <point x="390.253731343" y="901.0"/>
      <point x="291" y="901" type="qcurve" smooth="yes"/>
      <point x="193.23880597" y="901.0"/>
      <point x="72.0" y="1061.13432836"/>
      <point x="72" y="1188" type="qcurve"/>
      <point x="70.5074626866" y="1189.49253731"/>
      <point x="70.5074626866" y="1202.50746269"/>
      <point x="72" y="1204" type="qcurve"/>
      <point x="72.0" y="1330.86567164"/>
      <point x="193.23880597" y="1489.0"/>
      <point x="291" y="1489" type="qcurve" smooth="yes"/>
      <point x="390.253731343" y="1489.0"/>
      <point x="512.0" y="1330.86567164"/>
    </contour>
    <contour>
      <point x="291" y="973" type="qcurve" smooth="yes"/>
      <point x="352.194029851" y="973.0"/>
      <point x="420.0" y="1088.71641791"/>
      <point x="420" y="1182" type="qcurve" smooth="yes"/>
      <point x="420" y="1204" type="line" smooth="yes"/>
      <point x="420.0" y="1297.28358209"/>
      <point x="352.194029851" y="1417.0"/>
      <point x="291" y="1417" type="qcurve" smooth="yes"/>
      <point x="229.805970149" y="1417.0"/>
      <point x="164.0" y="1301.28358209"/>
      <point x="164" y="1208" type="qcurve"/>
      <point x="162.507462687" y="1206.50746269"/>
      <point x="162.507462687" y="1187.49253731"/>
      <point x="164" y="1186" type="qcurve"/>
      <point x="164.0" y="1092.71641791"/>
      <point x="229.805970149" y="973.0"/>
    </contour>
    <contour>
      <point x="500" y="797" type="line"/>
      <point x="500" y="729" type="line"/>
      <point x="82" y="729" type="line"/>
      <point x="82" y="797" type="line"/>
    </contour>
  </outline>
</glyph>
<glyph name="questiondown" format="1">
  <advance width="727.04"/>
  <unicode hex="00BF"/>
  <outline>
    <contour>
      <point x="588" y="317" type="qcurve"/>
      <point x="688" y="281" type="line"/>
      <point x="654.417910448" y="135.47761194"/>
      <point x="494.089552239" y="-25.0"/>
      <point x="362" y="-25" type="qcurve" smooth="yes"/>
      <point x="227.671641791" y="-25.0"/>
      <point x="72.0" y="161.23880597"/>
      <point x="72" y="309" type="qcurve" smooth="yes"/>
      <point x="72.0" y="435.865671642"/>
      <point x="152.686567164" y="593.791044776"/>
      <point x="240" y="702" type="qcurve" smooth="yes"/>
      <point x="307.164179104" y="786.328358209"/>
      <point x="354.507462687" y="936.029850746"/>
      <point x="356" y="1092" type="qcurve"/>
      <point x="428" y="1092" type="line"/>
      <point x="435.462686567" y="905.432835821"/>
      <point x="391.835820896" y="722.47761194"/>
      <point x="309" y="618" type="qcurve" smooth="yes"/>
      <point x="247.805970149" y="540.388059701"/>
      <point x="193.0" y="401.328358209"/>
      <point x="193" y="317" type="qcurve" smooth="yes"/>
      <point x="193.0" y="211.776119403"/>
      <point x="288.164179104" y="80.0"/>
      <point x="371" y="80" type="qcurve" smooth="yes"/>
      <point x="451.597014925" y="80.0"/>
      <point x="554.417910448" y="198.343283582"/>
    </contour>
    <contour>
      <point x="391" y="1489" type="qcurve" smooth="yes"/>
      <point x="429.059701493" y="1489.0"/>
      <point x="477.0" y="1441.05970149"/>
      <point x="477" y="1403" type="qcurve" smooth="yes"/>
      <point x="477.0" y="1364.94029851"/>
      <point x="429.059701493" y="1317.0"/>
      <point x="391" y="1317" type="qcurve" smooth="yes"/>
      <point x="354.432835821" y="1317.0"/>
      <point x="305.0" y="1364.94029851"/>
      <point x="305" y="1403" type="qcurve" smooth="yes"/>
      <point x="305.0" y="1441.05970149"/>
      <point x="354.432835821" y="1489.0"/>
    </contour>
  </outline>
</glyph>
<glyph name="AE" format="1">
  <advance width="1480.704"/>
  <unicode hex="00C6"/>
  <outline>
    <contour>
      <point x="1425" y="102" type="line"/>
      <point x="1425" y="0" type="line"/>
      <point x="748" y="0" type="line"/>
      <point x="748" y="397" type="line"/>
      <point x="315" y="397" type="line"/>
      <point x="154" y="0" type="line"/>
      <point x="25" y="0" type="line"/>
      <point x="629" y="1475" type="line"/>
      <point x="1407" y="1475" type="line"/>
      <point x="1407" y="1372" type="line"/>
      <point x="877" y="1372" type="line"/>
      <point x="877" y="821" type="line"/>
      <point x="1313" y="821" type="line"/>
      <point x="1313" y="721" type="line"/>
      <point x="877" y="721" type="line"/>
      <point x="877" y="102" type="line"/>
    </contour>
    <contour>
      <point x="348" y="494" type="line"/>
      <point x="748" y="494" type="line"/>
      <point x="748" y="1372" type="line"/>
      <point x="709" y="1372" type="line"/>
    </contour>
  </outline>
</glyph>
<glyph name="Oslash" format="1">
  <advance width="991.232"/>
  <unicode hex="00D8"/>
  <outline>
    <contour>
      <point x="825" y="1673" type="line"/>
      <point x="911" y="1673" type="line"/>
      <point x="780" y="1348" type="line"/>
      <point x="842.686567164" y="1260.68656716"/>
      <point x="907.0" y="993.656716418"/>
      <point x="907" y="825" type="qcurve" smooth="yes"/>
      <point x="907" y="651" type="line" smooth="yes"/>
      <point x="907.0" y="341.298507463"/>
      <point x="690.029850746" y="-25.0"/>
      <point x="496" y="-25" type="qcurve" smooth="yes"/>
      <point x="430.328358209" y="-25.0"/>
      <point x="312.776119403" y="24.2089552239"/>
      <point x="268" y="66" type="qcurve"/>
      <point x="166" y="-199" type="line"/>
      <point x="80" y="-199" type="line"/>
      <point x="211" y="127" type="line"/>
      <point x="149.805970149" y="214.313432836"/>
      <point x="84.0" y="479.597014925"/>
      <point x="84" y="649" type="qcurve" smooth="yes"/>
      <point x="84" y="823" type="line" smooth="yes"/>
      <point x="84.0" y="1133.44776119"/>
      <point x="301.970149254" y="1499.0"/>
      <point x="496" y="1499" type="qcurve" smooth="yes"/>
      <point x="561.671641791" y="1499.0"/>
      <point x="677.47761194" y="1453.02985075"/>
      <point x="723" y="1409" type="qcurve"/>
    </contour>
    <contour>
      <point x="496" y="72" type="qcurve" smooth="yes"/>
      <point x="639.28358209" y="72.0"/>
      <point x="778.0" y="391.686567164"/>
      <point x="778" y="629" type="qcurve" smooth="yes"/>
      <point x="778" y="819" type="line" smooth="yes"/>
      <point x="778.0" y="941.388059701"/>
      <point x="753.597014925" y="1137.65671642"/>
      <point x="723" y="1219" type="qcurve"/>
      <point x="311" y="174" type="line"/>
      <point x="344.582089552" y="126.985074627"/>
      <point x="439.28358209" y="72.0"/>
    </contour>
    <contour>
      <point x="268" y="256" type="qcurve"/>
      <point x="680" y="1300" type="line"/>
      <point x="644.925373134" y="1349.25373134"/>
      <point x="553.462686567" y="1403.0"/>
      <point x="496" y="1403" type="qcurve" smooth="yes"/>
      <point x="351.970149254" y="1403.0"/>
      <point x="213.0" y="1081.07462687"/>
      <point x="213" y="846" type="qcurve" smooth="yes"/>
      <point x="213" y="655" type="line" smooth="yes"/>
      <point x="213.0" y="545.298507463"/>
      <point x="237.402985075" y="337.343283582"/>
    </contour>
  </outline>
</glyph>
<glyph name="Thorn" format="1">
  <advance width="913.408"/>
  <unicode hex="00DE"/>
  <outline>
    <contour>
      <point x="418" y="1184" type="line" smooth="yes"/>
      <point x="622.47761194" y="1184.0"/>
      <point x="854.0" y="966.47761194"/>
      <point x="854" y="762" type="qcurve" smooth="yes"/>
      <point x="854.0" y="556.776119403"/>
      <point x="622.447761194" y="332.0"/>
      <point x="412" y="332" type="qcurve" smooth="yes"/>
      <point x="262" y="332" type="line"/>
      <point x="262" y="0" type="line"/>
      <point x="133" y="0" type="line"/>
      <point x="133" y="1475" type="line"/>
      <point x="262" y="1475" type="line"/>
      <point x="262" y="1184" type="line"/>
    </contour>
    <contour>
      <point x="432" y="432" type="line" smooth="yes"/>
      <point x="577.52238806" y="432.0"/>
      <point x="729.0" y="597.552238806"/>
      <point x="729" y="758" type="qcurve" smooth="yes"/>
      <point x="729.0" y="915.462686567"/>
      <point x="576.0" y="1085.0"/>
      <point x="426" y="1085" type="qcurve" smooth="yes"/>
      <point x="260" y="1085" type="line"/>
      <point x="260" y="432" type="line"/>
    </contour>
  </outline>
</glyph>
<glyph name="germandbls" format="1">
  <advance width="937.984"/>
  <unicode hex="00DF"/>
  <outline>
    <contour>
      <point x="555" y="842" type="line"/>
      <point x="680.373134328" y="801.701492537"/>
      <point x="874.0" y="569.507462687"/>
      <point x="874" y="371" type="qcurve" smooth="yes"/>
      <point x="874.0" y="182.940298507"/>
      <point x="703.134328358" y="-20.0"/>
      <point x="580" y="-20" type="qcurve" smooth="yes"/>
      <point x="495.671641791" y="-20.0"/>
      <point x="393.791044776" y="43.4925373134"/>
      <point x="352" y="92" type="qcurve"/>
      <point x="393" y="170" type="line"/>
      <point x="428.074626866" y="125.970149254"/>
      <point x="503.805970149" y="70.0"/>
      <point x="565" y="70" type="qcurve" smooth="yes"/>
      <point x="640.373134328" y="70.0"/>
      <point x="754.0" y="221.47761194"/>
      <point x="754" y="367" type="qcurve" smooth="yes"/>
      <point x="754.0" y="554.313432836"/>
      <point x="568.641791045" y="784.850746269"/>
      <point x="397" y="805" type="qcurve"/>
      <point x="397" y="885" type="line"/>
      <point x="525.358208955" y="890.970149254"/>
      <point x="649.0" y="1075.10447761"/>
      <point x="649" y="1196" type="qcurve" smooth="yes"/>
      <point x="649.0" y="1307.94029851"/>
      <point x="546.0" y="1468.0"/>
      <point x="446" y="1468" type="qcurve" smooth="yes"/>
      <point x="342.268656716" y="1468.0"/>
      <point x="236.0" y="1307.98507463"/>
      <point x="236" y="1155" type="qcurve" smooth="yes"/>
      <point x="236" y="0" type="line"/>
      <point x="113" y="0" type="line"/>
      <point x="113" y="1141" type="line" smooth="yes"/>
      <point x="113.0" y="1343.98507463"/>
      <point x="296.014925373" y="1554.0"/>
      <point x="449" y="1554" type="qcurve" smooth="yes"/>
      <point x="595.268656716" y="1554.0"/>
      <point x="768.0" y="1354.50746269"/>
      <point x="768" y="1206" type="qcurve" smooth="yes"/>
      <point x="768.0" y="1068.68656716"/>
      <point x="642.313432836" y="889.074626866"/>
      <point x="555" y="854" type="qcurve"/>
    </contour>
  </outline>
</glyph>
<glyph name="ae" format="1">
  <advance width="1220.608"/>
  <unicode hex="00E6"/>
  <outline>
    <contour>
      <point x="1155" y="530" type="qcurve" smooth="yes"/>
      <point x="1155" y="506" type="line"/>
      <point x="653" y="506" type="line"/>
      <point x="653" y="467" type="line" smooth="yes"/>
      <point x="653.0" y="280.432835821"/>
      <point x="780.044776119" y="76.0"/>
      <point x="889" y="76" type="qcurve" smooth="yes"/>
      <point x="950.194029851" y="76.0"/>
      <point x="1058.23880597" y="135.014925373"/>
      <point x="1106" y="188" type="qcurve"/>
      <point x="1151" y="113" type="line"/>
      <point x="1097.26865672" y="54.7910447761"/>
      <point x="959.820895522" y="-20.0"/>
      <point x="874" y="-20" type="qcurve" smooth="yes"/>
      <point x="779.970149254" y="-20.0"/>
      <point x="633.552238806" y="85.7313432836"/>
      <point x="594" y="182" type="qcurve"/>
      <point x="592" y="182" type="line"/>
      <point x="530.805970149" y="81.2537313433"/>
      <point x="380.820895522" y="-16.0"/>
      <point x="295" y="-16" type="qcurve" smooth="yes"/>
      <point x="189.776119403" y="-16.0"/>
      <point x="51.0" y="124.149253731"/>
      <point x="51" y="254" type="qcurve" smooth="yes"/>
      <point x="51.0" y="402.507462687"/>
      <point x="294.223880597" y="610.850746269"/>
      <point x="539" y="631" type="qcurve"/>
      <point x="539" y="784" type="line" smooth="yes"/>
      <point x="539.0" y="881.76119403"/>
      <point x="470.402985075" y="975.0"/>
      <point x="401" y="975" type="qcurve" smooth="yes"/>
      <point x="338.313432836" y="975.0"/>
      <point x="224.149253731" y="927.537313433"/>
      <point x="154" y="885" type="qcurve"/>
      <point x="115" y="967" type="line"/>
      <point x="183.656716418" y="1009.53731343"/>
      <point x="334.71641791" y="1069.0"/>
      <point x="428" y="1069" type="qcurve" smooth="yes"/>
      <point x="522.776119403" y="1069.0"/>
      <point x="607.044776119" y="975.298507463"/>
      <point x="616" y="885" type="qcurve"/>
      <point x="625" y="885" type="line"/>
      <point x="657.089552239" y="973.805970149"/>
      <point x="772.656716418" y="1079.0"/>
      <point x="854" y="1079" type="qcurve" smooth="yes"/>
      <point x="994.298507463" y="1079.0"/>
      <point x="1155.0" y="777.76119403"/>
    </contour>
    <contour>
      <point x="330" y="72" type="qcurve" smooth="yes"/>
      <point x="386.71641791" y="72.0"/>
      <point x="510.52238806" y="158.268656716"/>
      <point x="565" y="262" type="qcurve"/>
      <point x="553.059701493" y="304.537313433"/>
      <point x="541.0" y="411.805970149"/>
      <point x="541" y="473" type="qcurve" smooth="yes"/>
      <point x="541" y="563" type="line"/>
      <point x="340.253731343" y="545.089552239"/>
      <point x="168.0" y="371.970149254"/>
      <point x="168" y="266" type="qcurve" smooth="yes"/>
      <point x="168.0" y="175.701492537"/>
      <point x="257.611940299" y="72.0"/>
    </contour>
    <contour>
      <point x="653" y="580" type="line"/>
      <point x="1040" y="580" type="line"/>
      <point x="1035.52238806" y="759.850746269"/>
      <point x="936.328358209" y="995.0"/>
      <point x="852" y="995" type="qcurve" smooth="yes"/>
      <point x="757.223880597" y="995.0"/>
      <point x="653.0" y="767.343283582"/>
      <point x="653" y="586" type="qcurve" smooth="yes"/>
    </contour>
  </outline>
</glyph>
<glyph name="eth" format="1">
  <advance width="798.72"/>
  <unicode hex="00F0"/>
  <outline>
    <contour>
      <point x="729" y="584" type="qcurve" smooth="yes"/>
      <point x="729" y="492" type="line" smooth="yes"/>
      <point x="729.0" y="265.134328358"/>
      <point x="546.492537313" y="-20.0"/>
      <point x="395" y="-20" type="qcurve" smooth="yes"/>
      <point x="244.253731343" y="-20.0"/>
      <point x="70.0" y="265.134328358"/>
      <point x="70" y="492" type="qcurve" smooth="yes"/>
      <point x="70" y="565" type="line" smooth="yes"/>
      <point x="70.0" y="792.611940299"/>
      <point x="238.462686567" y="1075.0"/>
      <point x="381" y="1075" type="qcurve" smooth="yes"/>
      <point x="460.104477612" y="1075.0"/>
      <point x="572.417910448" y="957.313432836"/>
      <point x="606" y="870" type="qcurve"/>
      <point x="614" y="870" type="line"/>
      <point x="600.567164179" y="999.850746269"/>
      <point x="499.641791045" y="1237.74626866"/>
      <point x="428" y="1337" type="qcurve"/>
      <point x="248" y="1202" type="line"/>
      <point x="248" y="1280" type="line"/>
      <point x="391" y="1389" type="line"/>
      <point x="363.388059701" y="1421.08955224"/>
      <point x="306.597014925" y="1484.64179104"/>
      <point x="276" y="1513" type="qcurve"/>
      <point x="367" y="1561" type="line"/>
      <point x="392.373134328" y="1533.3880597"/>
      <point x="444.880597015" y="1473.07462687"/>
      <point x="471" y="1438" type="qcurve"/>
      <point x="641" y="1561" type="line"/>
      <point x="641" y="1485" type="line"/>
      <point x="508" y="1389" type="line"/>
      <point x="596.805970149" y="1258.40298507"/>
      <point x="729.0" y="872.805970149"/>
    </contour>
    <contour>
      <point x="401" y="66" type="qcurve" smooth="yes"/>
      <point x="497.268656716" y="66.0"/>
      <point x="610.0" y="293.925373134"/>
      <point x="610" y="479" type="qcurve" smooth="yes"/>
      <point x="610" y="578" type="line" smooth="yes"/>
      <point x="610.0" y="763.820895522"/>
      <point x="493.268656716" y="993.0"/>
      <point x="397" y="993" type="qcurve" smooth="yes"/>
      <point x="302.223880597" y="993.0"/>
      <point x="188.0" y="763.820895522"/>
      <point x="188" y="578" type="qcurve" smooth="yes"/>
      <point x="188" y="479" type="line" smooth="yes"/>
      <point x="188.0" y="293.925373134"/>
      <point x="304.731343284" y="66.0"/>
    </contour>
  </outline>
</glyph>
<glyph name="divide" format="1">
  <advance width="964.608"/>
  <unicode hex="00F7"/>
  <outline>
    <contour>
      <point x="483" y="473" type="qcurve" smooth="yes"/>
      <point x="521.805970149" y="473.0"/>
      <point x="571.0" y="423.059701493"/>
      <point x="571" y="385" type="qcurve" smooth="yes"/>
      <point x="571.0" y="346.940298507"/>
      <point x="521.805970149" y="299.0"/>
      <point x="483" y="299" type="qcurve" smooth="yes"/>
      <point x="444.940298507" y="299.0"/>
      <point x="395.0" y="346.940298507"/>
      <point x="395" y="385" type="qcurve" smooth="yes"/>
      <point x="395.0" y="423.059701493"/>
      <point x="444.940298507" y="473.0"/>
    </contour>
    <contour>
      <point x="483" y="1155" type="qcurve" smooth="yes"/>
      <point x="521.805970149" y="1155.0"/>
      <point x="571.0" y="1107.05970149"/>
      <point x="571" y="1069" type="qcurve" smooth="yes"/>
      <point x="571.0" y="1030.94029851"/>
      <point x="521.805970149" y="981.0"/>
      <point x="483" y="981" type="qcurve" smooth="yes"/>
      <point x="444.940298507" y="981.0"/>
      <point x="395.0" y="1030.94029851"/>
      <point x="395" y="1069" type="qcurve" smooth="yes"/>
      <point x="395.0" y="1107.05970149"/>
      <point x="444.940298507" y="1155.0"/>
    </contour>
    <contour>
      <point x="893" y="780" type="line"/>
      <point x="893" y="674" type="line"/>
      <point x="72" y="674" type="line"/>
      <point x="72" y="780" type="line"/>
    </contour>
  </outline>
</glyph>
<glyph name="oslash" format="1">
  <advance width="798.72"/>
  <unicode hex="00F8"/>
  <outline>
    <contour>
      <point x="653" y="1253" type="line"/>
      <point x="731" y="1253" type="line"/>
      <point x="616" y="973" type="line"/>
      <point x="671.223880597" y="905.835820896"/>
      <point x="731.0" y="697.358208955"/>
      <point x="731" y="569" type="qcurve" smooth="yes"/>
      <point x="731" y="489" type="line" smooth="yes"/>
      <point x="731.0" y="268.104477612"/>
      <point x="549.985074627" y="-20.0"/>
      <point x="397" y="-20" type="qcurve" smooth="yes"/>
      <point x="352.970149254" y="-20.0"/>
      <point x="273.582089552" y="10.8805970149"/>
      <point x="240" y="37" type="qcurve"/>
      <point x="147" y="-195" type="line"/>
      <point x="70" y="-195" type="line"/>
      <point x="184" y="86" type="line"/>
      <point x="129.52238806" y="153.164179104"/>
      <point x="70.0" y="360.641791045"/>
      <point x="70" y="489" type="qcurve" smooth="yes"/>
      <point x="70" y="569" type="line" smooth="yes"/>
      <point x="70.0" y="790.641791045"/>
      <point x="248.76119403" y="1079.0"/>
      <point x="401" y="1079" type="qcurve" smooth="yes"/>
      <point x="447.268656716" y="1079.0"/>
      <point x="528.910447761" y="1049.6119403"/>
      <point x="561" y="1022" type="qcurve"/>
    </contour>
    <contour>
      <point x="238" y="197" type="qcurve"/>
      <point x="524" y="924" type="line"/>
      <point x="500.119402985" y="960.567164179"/>
      <point x="433.567164179" y="995.0"/>
      <point x="397" y="995" type="qcurve" smooth="yes"/>
      <point x="300.731343284" y="995.0"/>
      <point x="188.0" y="757.089552239"/>
      <point x="188" y="575" type="qcurve" smooth="yes"/>
      <point x="188" y="477" type="line" smooth="yes"/>
      <point x="188.0" y="406.850746269"/>
      <point x="214.865671642" y="249.985074627"/>
    </contour>
    <contour>
      <point x="401" y="63" type="qcurve" smooth="yes"/>
      <point x="497.268656716" y="63.0"/>
      <point x="610.0" y="302.641791045"/>
      <point x="610" y="481" type="qcurve" smooth="yes"/>
      <point x="610" y="575" type="line" smooth="yes"/>
      <point x="610.0" y="653.358208955"/>
      <point x="587.626865672" y="805.28358209"/>
      <point x="563" y="862" type="qcurve"/>
      <point x="276" y="135" type="line"/>
      <point x="300.626865672" y="102.910447761"/>
      <point x="364.432835821" y="63.0"/>
    </contour>
  </outline>
</glyph>
<glyph name="dotlessi" format="1">
  <advance width="366.592"/>
  <unicode hex="0131"/>
  <outline>
    <contour>
      <point x="244" y="1059" type="line"/>
      <point x="244" y="0" type="line"/>
      <point x="123" y="0" type="line"/>
      <point x="123" y="1059" type="line"/>
    </contour>
  </outline>
</glyph>
<glyph name="lslash" format="1">
  <advance width="497.664"/>
  <unicode hex="0142"/>
  <outline>
    <contour>
      <point x="453" y="922" type="line"/>
      <point x="453" y="813" type="line"/>
      <point x="311" y="731" type="line"/>
      <point x="311" y="0" type="line"/>
      <point x="186" y="0" type="line"/>
      <point x="186" y="672" type="line"/>
      <point x="45" y="592" type="line"/>
      <point x="45" y="700" type="line"/>
      <point x="186" y="780" type="line"/>
      <point x="186" y="1516" type="line"/>
      <point x="311" y="1559" type="line"/>
      <point x="311" y="840" type="line"/>
    </contour>
  </outline>
</glyph>
<glyph name="circumflex" format="1">
  <advance width="802.816"/>
  <unicode hex="02C6"/>
  <outline>
    <contour>
      <point x="455" y="1430" type="line"/>
      <point x="633" y="1176" type="line"/>
      <point x="569" y="1176" type="line"/>
      <point x="399" y="1346" type="line"/>
      <point x="231" y="1176" type="line"/>
      <point x="170" y="1176" type="line"/>
      <point x="348" y="1430" type="line"/>
    </contour>
  </outline>
</glyph>
<glyph name="dotaccent" format="1">
  <advance width="802.816"/>
  <unicode hex="02D9"/>
  <outline>
    <contour>
      <point x="471" y="1337" type="line"/>
      <point x="471" y="1184" type="line"/>
      <point x="332" y="1184" type="line"/>
      <point x="332" y="1337" type="line"/>
    </contour>
  </outline>
</glyph>
<glyph name="ogonek" format="1">
  <advance width="802.816"/>
  <unicode hex="02DB"/>
  <outline>
    <contour>
      <point x="578" y="-219" type="qcurve"/>
      <point x="596" y="-260" type="line"/>
      <point x="546.746268657" y="-287.611940299"/>
      <point x="447.746268657" y="-319.0"/>
      <point x="397" y="-319" type="qcurve" smooth="yes"/>
      <point x="326.850746269" y="-319.0"/>
      <point x="240.0" y="-251.955223881"/>
      <point x="240" y="-193" type="qcurve" smooth="yes"/>
      <point x="240.0" y="-137.776119403"/>
      <point x="323.805970149" y="-38.0597014925"/>
      <point x="385" y="0" type="qcurve"/>
      <point x="451" y="0" type="line"/>
      <point x="394.28358209" y="-42.5373134328"/>
      <point x="334.0" y="-133.462686567"/>
      <point x="334" y="-176" type="qcurve" smooth="yes"/>
      <point x="334.0" y="-211.074626866"/>
      <point x="381.940298507" y="-256.0"/>
      <point x="420" y="-256" type="qcurve" smooth="yes"/>
      <point x="461.044776119" y="-256.0"/>
      <point x="534.71641791" y="-236.164179104"/>
    </contour>
  </outline>
</glyph>
<glyph name="tilde" format="1">
  <advance width="802.816"/>
  <unicode hex="02DC"/>
  <outline>
    <contour>
      <point x="588" y="1360" type="qcurve"/>
      <point x="649" y="1360" type="line"/>
      <point x="650.492537313" y="1271.19402985"/>
      <point x="585.671641791" y="1184.0"/>
      <point x="520" y="1184" type="qcurve" smooth="yes"/>
      <point x="452.835820896" y="1184.0"/>
      <point x="329.507462687" y="1274.0"/>
      <point x="281" y="1274" type="qcurve" smooth="yes"/>
      <point x="247.417910448" y="1274.0"/>
      <point x="215.0" y="1230.53731343"/>
      <point x="215" y="1188" type="qcurve"/>
      <point x="154" y="1188" type="line"/>
      <point x="151.014925373" y="1278.29850746"/>
      <point x="216.820895522" y="1364.0"/>
      <point x="281" y="1364" type="qcurve" smooth="yes"/>
      <point x="352.641791045" y="1364.0"/>
      <point x="474.985074627" y="1276.0"/>
      <point x="522" y="1276" type="qcurve" smooth="yes"/>
      <point x="555.582089552" y="1276.0"/>
      <point x="588.0" y="1318.95522388"/>
    </contour>
  </outline>
</glyph>
<glyph name="quotedblbase" format="1">
  <advance width="573.44"/>
  <unicode hex="201E"/>
  <outline>
    <contour>
      <point x="115" y="186" type="line"/>
      <point x="244" y="186" type="line"/>
      <point x="106" y="-223" type="line"/>
      <point x="51" y="-223" type="line"/>
    </contour>
    <contour>
      <point x="373" y="186" type="line"/>
      <point x="500" y="186" type="line"/>
      <point x="362" y="-223" type="line"/>
      <point x="307" y="-223" type="line"/>
    </contour>
  </outline>
</glyph>
<glyph name="daggerdbl" format="1">
  <advance width="745.472"/>
  <unicode hex="2021"/>
  <outline>
    <contour>
      <point x="670" y="475" type="line"/>
      <point x="670" y="367" type="line"/>
      <point x="403" y="397" type="line"/>
      <point x="436" y="0" type="line"/>
      <point x="307" y="0" type="line"/>
      <point x="340" y="397" type="line"/>
      <point x="74" y="367" type="line"/>
      <point x="74" y="475" type="line"/>
      <point x="340" y="446" type="line"/>
      <point x="307" y="737" type="line"/>
      <point x="340" y="1028" type="line"/>
      <point x="74" y="999" type="line"/>
      <point x="74" y="1108" type="line"/>
      <point x="340" y="1077" type="line"/>
      <point x="307" y="1475" type="line"/>
      <point x="436" y="1475" type="line"/>
      <point x="403" y="1077" type="line"/>
      <point x="670" y="1108" type="line"/>
      <point x="670" y="999" type="line"/>
      <point x="403" y="1028" type="line"/>
      <point x="434" y="737" type="line"/>
      <point x="403" y="446" type="line"/>
    </contour>
  </outline>
</glyph>
<glyph name="guilsinglright" format="1">
  <advance width="409.6"/>
  <unicode hex="203A"/>
  <outline>
    <contour>
      <point x="135" y="899" type="line"/>
      <point x="389" y="528" type="line"/>
      <point x="135" y="160" type="line"/>
      <point x="59" y="160" type="line"/>
      <point x="254" y="528" type="line"/>
      <point x="59" y="899" type="line"/>
    </contour>
  </outline>
</glyph>
<glyph name="Euro" format="1">
  <advance width="925.696"/>
  <unicode hex="20AC"/>
  <outline>
    <contour>
      <point x="768" y="430" type="qcurve"/>
      <point x="868" y="387" type="line"/>
      <point x="828.447761194" y="204.910447761"/>
      <point x="657.149253731" y="-25.0"/>
      <point x="487" y="-25" type="qcurve" smooth="yes"/>
      <point x="297.447761194" y="-25.0"/>
      <point x="84.0" y="339.597014925"/>
      <point x="84" y="659" type="qcurve" smooth="yes"/>
      <point x="84" y="813" type="line" smooth="yes"/>
      <point x="84.0" y="1132.40298507"/>
      <point x="299.179104478" y="1499.0"/>
      <point x="485" y="1499" type="qcurve" smooth="yes"/>
      <point x="643.955223881" y="1499.0"/>
      <point x="820.447761194" y="1290.62686567"/>
      <point x="860" y="1116" type="qcurve"/>
      <point x="756" y="1069" type="line"/>
      <point x="722.417910448" y="1221.98507463"/>
      <point x="597.447761194" y="1401.0"/>
      <point x="487" y="1401" type="qcurve" smooth="yes"/>
      <point x="361.626865672" y="1401.0"/>
      <point x="220.940298507" y="1130.44776119"/>
      <point x="209" y="920" type="qcurve"/>
      <point x="584" y="920" type="line"/>
      <point x="584" y="836" type="line"/>
      <point x="207" y="836" type="line"/>
      <point x="207" y="618" type="line"/>
      <point x="584" y="618" type="line"/>
      <point x="584" y="535" type="line"/>
      <point x="211" y="535" type="line"/>
      <point x="224.432835821" y="332.76119403"/>
      <point x="367.641791045" y="74.0"/>
      <point x="496" y="74" type="qcurve" smooth="yes"/>
      <point x="605.701492537" y="74.0"/>
      <point x="729.940298507" y="259.104477612"/>
    </contour>
  </outline>
</glyph>
<glyph name="uni2117" format="1">
  <advance width="1347.584"/>
  <unicode hex="2117"/>
  <outline>
    <contour>
      <point x="676" y="1499" type="qcurve" smooth="yes"/>
      <point x="937.194029851" y="1499.0"/>
      <point x="1276.0" y="1064.6119403"/>
      <point x="1276" y="737" type="qcurve" smooth="yes"/>
      <point x="1276.0" y="410.134328358"/>
      <point x="936.686567164" y="-25.0"/>
      <point x="674" y="-25" type="qcurve" smooth="yes"/>
      <point x="412.805970149" y="-25.0"/>
      <point x="74.0" y="410.134328358"/>
      <point x="74" y="737" type="qcurve" smooth="yes"/>
      <point x="74.0" y="1064.6119403"/>
      <point x="413.313432836" y="1499.0"/>
    </contour>
    <contour>
      <point x="676" y="29" type="qcurve" smooth="yes"/>
      <point x="915.552238806" y="29.0"/>
      <point x="1214.0" y="433.268656716"/>
      <point x="1214" y="737" type="qcurve" smooth="yes"/>
      <point x="1214.0" y="1039.98507463"/>
      <point x="915.044776119" y="1446.0"/>
      <point x="674" y="1446" type="qcurve" smooth="yes"/>
      <point x="432.208955224" y="1446.0"/>
      <point x="135.0" y="1041.47761194"/>
      <point x="135" y="737" type="qcurve" smooth="yes"/>
      <point x="135.0" y="434.76119403"/>
      <point x="432.71641791" y="29.0"/>
    </contour>
    <contour>
      <point x="684" y="1157" type="line" smooth="yes"/>
      <point x="806.388059701" y="1157.0"/>
      <point x="940.0" y="1028.40298507"/>
      <point x="940" y="909" type="qcurve" smooth="yes"/>
      <point x="940.0" y="788.850746269"/>
      <point x="807.373134328" y="657.0"/>
      <point x="682" y="657" type="qcurve" smooth="yes"/>
      <point x="606" y="657" type="line"/>
      <point x="606" y="326" type="line"/>
      <point x="510" y="326" type="line"/>
      <point x="510" y="1157" type="line"/>
    </contour>
    <contour>
      <point x="690" y="737" type="line" smooth="yes"/>
      <point x="765.373134328" y="737.0"/>
      <point x="842.0" y="824.910447761"/>
      <point x="842" y="907" type="qcurve" smooth="yes"/>
      <point x="842.0" y="986.850746269"/>
      <point x="762.119402985" y="1075.0"/>
      <point x="686" y="1075" type="qcurve" smooth="yes"/>
      <point x="606" y="1075" type="line"/>
      <point x="606" y="737" type="line"/>
    </contour>
  </outline>
</glyph>
<glyph name="radical" format="1">
  <advance width="919.552"/>
  <unicode hex="221A"/>
  <outline>
    <contour>
      <point x="739" y="1475" type="line"/>
      <point x="870" y="1475" type="line"/>
      <point x="451" y="-6" type="line"/>
      <point x="313" y="-6" type="line"/>
      <point x="63" y="696" type="line"/>
      <point x="193" y="696" type="line"/>
      <point x="379" y="131" type="line"/>
    </contour>
  </outline>
</glyph>
<glyph name="apple" format="1">
  <advance width="1024.0"/>
  <unicode hex="F8FF"/>
  <outline>
    <contour>
      <point x="555" y="434" type="line"/>
      <point x="938" y="350" type="line"/>
      <point x="897" y="225" type="line"/>
      <point x="535" y="393" type="line"/>
      <point x="580" y="0" type="line"/>
      <point x="444" y="0" type="line"/>
      <point x="489" y="393" type="line"/>
      <point x="127" y="225" type="line"/>
      <point x="86" y="350" type="line"/>
      <point x="469" y="434" type="line"/>
      <point x="197" y="733" type="line"/>
      <point x="197" y="741" type="line"/>
      <point x="469" y="1040" type="line"/>
      <point x="86" y="1124" type="line"/>
      <point x="127" y="1249" type="line"/>
      <point x="489" y="1081" type="line"/>
      <point x="444" y="1475" type="line"/>
      <point x="580" y="1475" type="line"/>
      <point x="535" y="1081" type="line"/>
      <point x="897" y="1249" type="line"/>
      <point x="938" y="1124" type="line"/>
      <point x="555" y="1040" type="line"/>
      <point x="827" y="741" type="line"/>
      <point x="827" y="733" type="line"/>
    </contour>
    <contour>
      <point x="512" y="451" type="line"/>
      <point x="700" y="737" type="line"/>
      <point x="512" y="1024" type="line"/>
      <point x="324" y="737" type="line"/>
    </contour>
  </outline>
</glyph>
<glyph name="I.salt" format="1">
  <advance width="421.888"/>
  <outline>
    <contour>
      <point x="274" y="1475" type="line"/>
      <point x="274" y="0" type="line"/>
      <point x="145" y="0" type="line"/>
      <point x="145" y="1475" type="line"/>
    </contour>
  </outline>
</glyph>
<glyph name="endash.uc" format="1">
  <advance width="964.608"/>
  <outline>
    <contour>
      <point x="893" y="780" type="line"/>
      <point x="893" y="672" type="line"/>
      <point x="72" y="672" type="line"/>
      <point x="72" y="780" type="line"/>
    </contour>
  </outline>
</glyph>
